<svg width="48" height="48" viewBox="0 0 48 48" fill="none" xmlns="http://www.w3.org/2000/svg">
<path d="M16 44C17.1046 44 18 43.1046 18 42C18 40.8954 17.1046 40 16 40C14.8954 40 14 40.8954 14 42C14 43.1046 14.8954 44 16 44Z" stroke="#171717" stroke-width="4" stroke-linecap="round" stroke-linejoin="round"/>
<path d="M38 44C39.1046 44 40 43.1046 40 42C40 40.8954 39.1046 40 38 40C36.8954 40 36 40.8954 36 42C36 43.1046 36.8954 44 38 44Z" stroke="#171717" stroke-width="4" stroke-linecap="round" stroke-linejoin="round"/>
<path d="M4.1001 4.09998H8.1001L13.4201 28.94C13.6153 29.8497 14.1214 30.6629 14.8515 31.2397C15.5816 31.8165 16.4899 32.1207 17.4201 32.1H36.9801C37.8904 32.0985 38.7731 31.7866 39.4822 31.2156C40.1912 30.6447 40.6844 29.849 40.8801 28.96L44.1801 14.1H10.2401" stroke="#171717" stroke-width="4" stroke-linecap="round" stroke-linejoin="round"/>
</svg>
