<svg width="40" height="44" viewBox="0 0 40 44" fill="none" xmlns="http://www.w3.org/2000/svg">
<path d="M18 41.46C18.6081 41.8111 19.2979 41.9959 20 41.9959C20.7021 41.9959 21.3919 41.8111 22 41.46L36 33.46C36.6075 33.1093 37.112 32.605 37.4631 31.9977C37.8141 31.3904 37.9993 30.7015 38 30V14C37.9993 13.2986 37.8141 12.6097 37.4631 12.0024C37.112 11.3951 36.6075 10.8908 36 10.54L22 2.54005C21.3919 2.18898 20.7021 2.00415 20 2.00415C19.2979 2.00415 18.6081 2.18898 18 2.54005L4 10.54C3.39253 10.8908 2.88796 11.3951 2.53692 12.0024C2.18589 12.6097 2.00072 13.2986 2 14V30C2.00072 30.7015 2.18589 31.3904 2.53692 31.9977C2.88796 32.605 3.39253 33.1093 4 33.46L18 41.46Z" stroke="#171717" stroke-width="4" stroke-linecap="round" stroke-linejoin="round"/>
<path d="M18 41.46C18.6081 41.8111 19.2979 41.9959 20 41.9959C20.7021 41.9959 21.3919 41.8111 22 41.46L36 33.46C36.6075 33.1093 37.112 32.605 37.4631 31.9977C37.8141 31.3904 37.9993 30.7015 38 30V14C37.9993 13.2986 37.8141 12.6097 37.4631 12.0024C37.112 11.3951 36.6075 10.8908 36 10.54L22 2.54005C21.3919 2.18898 20.7021 2.00415 20 2.00415C19.2979 2.00415 18.6081 2.18898 18 2.54005L4 10.54C3.39253 10.8908 2.88796 11.3951 2.53692 12.0024C2.18589 12.6097 2.00072 13.2986 2 14V30C2.00072 30.7015 2.18589 31.3904 2.53692 31.9977C2.88796 32.605 3.39253 33.1093 4 33.46L18 41.46Z" stroke="#171717" stroke-width="4" stroke-linecap="round" stroke-linejoin="round"/>
<path d="M20 42V22" stroke="#171717" stroke-width="4" stroke-linecap="round" stroke-linejoin="round"/>
<path d="M2.6001 12L18.0061 21.468C18.6127 21.8168 19.3003 22.0004 20.0001 22.0004C20.6999 22.0004 21.3874 21.8168 21.9941 21.468L37.4001 12" stroke="#171717" stroke-width="4" stroke-linecap="round" stroke-linejoin="round"/>
<path d="M11 6.54004L29 16.84" stroke="#171717" stroke-width="4" stroke-linecap="round" stroke-linejoin="round"/>
</svg>
